<?xml version="1.0" encoding="UTF-8"?>
<svg id="Layer_2" data-name="Layer 2" xmlns="http://www.w3.org/2000/svg" viewBox="0 0 302 69.46">
  <defs>
    <style>
      .cls-1 {
        fill-rule: evenodd;
      }

      .cls-1, .cls-2 {
        fill: #174898;
      }

      .cls-3 {
        fill: #fff;
      }
    </style>
  </defs>
  <g id="Layer_1-2" data-name="Layer 1">
    <g id="Layer_1-3" data-name="Layer_1">
      <g id="_2939257924688" data-name=" 2939257924688">
        <rect class="cls-3" width="69.46" height="69.46" rx="13.35" ry="13.35"/>
        <path class="cls-3" d="M140.54,23.97c-7.93,0-18.3,6.05-18.3,18.58s9.81,18.37,19.07,18.37c4.38,0,7.86-1.18,10.44-2.99,1.74-1.46,2.23-2.71,2.23-3.83,0-1.74-1.18-3.13-3.13-3.13-1.18,0-2.16.56-3.41,1.11-2.09.91-3.27,1.46-5.78,1.46-5.08,0-9.12-2.71-9.95-7.79l20.67.14c3.69,0,5.71-1.25,5.71-4.87,0-10.79-9.6-17.05-17.54-17.05h0ZM140.54,31.91c3.97,0,7.86,2.23,8.56,7.59h-17.4c.63-5.36,4.87-7.59,8.84-7.59ZM187.1,11.93c-1.88-1.18-4.52-1.95-7.59-1.95-4.45,0-12.18,2.09-12.18,11.83v2.57h-2.09c-2.23,0-3.69,1.46-3.69,3.62s1.46,3.55,3.69,3.55h2.09v24.91c0,2.51,2.09,4.52,4.52,4.52s4.59-2.02,4.59-4.52v-24.91h5.71c2.23,0,3.69-1.46,3.69-3.55s-1.46-3.62-3.69-3.62h-5.71v-2.09c0-1.39.49-4.59,4.38-4.59.9,0,1.46.21,2.37.56,1.32.42,2.3.63,2.92.63,1.95,0,3.41-1.32,3.41-3.27,0-1.53-.84-2.71-2.44-3.69h0ZM219.18,24.18c-2.51,0-4.59,2.09-4.59,4.52v1.18c-1.39-3.27-5.36-5.92-10.3-5.92-7.59,0-16.84,6.12-16.84,18.51s9.19,18.58,16.84,18.58c6.05,0,9.74-3.76,10.3-5.92v1.32c0,2.51,2.09,4.52,4.59,4.52s4.66-2.02,4.66-4.52v-27.77c0-2.44-2.23-4.52-4.66-4.52h0ZM205.96,53.2c-4.59,0-9.39-3.55-9.39-10.72s4.8-10.72,9.39-10.72c3.9,0,9.05,2.85,9.05,10.72s-5.15,10.72-9.05,10.72ZM262.54,24.18c-2.51,0-4.59,2.09-4.59,4.52v1.18c-1.39-3.27-5.36-5.92-10.3-5.92-7.59,0-16.84,6.12-16.84,18.51s9.19,18.58,16.84,18.58c6.05,0,9.74-3.76,10.3-5.92v1.32c0,2.51,2.09,4.52,4.59,4.52s4.66-2.02,4.66-4.52v-27.77c0-2.44-2.23-4.52-4.66-4.52h0ZM249.32,53.2c-4.59,0-9.4-3.55-9.4-10.72s4.8-10.72,9.4-10.72c3.9,0,9.05,2.85,9.05,10.72s-5.15,10.72-9.05,10.72ZM287.94,23.97c-6.61,0-13.01,3.62-13.01,10.58,0,4.94,2.92,8.7,9.95,10.65l3.97,1.18c3.34.97,4.11,2.51,4.11,3.69,0,1.95-1.88,3.41-5.29,3.41-2.37,0-4.59-.7-6.61-3.2-.83-1.04-1.88-2.23-3.76-2.23-2.51,0-3.48,1.95-3.48,3.48,0,2.16,1.53,3.9,1.88,4.38,1.95,2.37,5.71,5.01,11.97,5.01,7.24,0,14.34-3.69,14.34-11.34,0-6.19-4.66-8.84-10.23-10.37l-4.25-1.25c-3.2-.9-3.62-2.37-3.62-3.48,0-1.95,1.6-3.27,4.31-3.27,2.02,0,3.62.77,5.01,2.37,1.18,1.46,2.51,1.95,3.83,1.95,2.02,0,3.55-1.18,3.55-3.41,0-1.46-.7-2.44-1.11-3.06-2.3-3.2-6.82-5.08-11.55-5.08h0Z"/>
        <g>
          <path class="cls-2" d="M53.5,60.85H16.5c-1.93,0-3.5-1.57-3.5-3.5s1.57-3.5,3.5-3.5h37c1.93,0,3.5,1.57,3.5,3.5s-1.57,3.5-3.5,3.5Z"/>
          <circle class="cls-2" cx="22.24" cy="34" r="3.68"/>
          <path class="cls-1" d="M36.9,10.9c0-1.27-1.64-2.29-3.67-2.29s-3.67,1.03-3.67,2.29v22.13s0,.09,0,.13c0,0,0,0,0,.01v1.64c-.41,3.67-3.51,6.52-7.29,6.52-4.05,0-7.34-3.28-7.34-7.34s3.23-7.28,7.23-7.33c.02,0,.05,0,.07,0,2.03,0,3.68-1.65,3.68-3.68,0-.05-.01-.1-.02-.16h0,0c-.09-1.96-1.69-3.52-3.66-3.52,0,0,0,0,0,0h0s0,0,0,0c0,0,0,0,0,0-8.1,0-14.67,6.57-14.67,14.68s6.57,14.68,14.67,14.68c7.23,0,13.23-5.24,14.44-12.14.14-.25.24-.51.24-.79V10.9Z"/>
          <g>
            <circle class="cls-2" cx="47.24" cy="34" r="3.68"/>
            <path class="cls-1" d="M61.9,10.9c0-1.27-1.64-2.29-3.67-2.29s-3.67,1.03-3.67,2.29v22.13s0,.09,0,.13c0,0,0,0,0,.01v1.64c-.41,3.67-3.51,6.52-7.29,6.52-4.05,0-7.34-3.28-7.34-7.34s3.23-7.28,7.23-7.33c.02,0,.05,0,.07,0,2.03,0,3.68-1.65,3.68-3.68,0-.05-.01-.1-.02-.16h0,0c-.09-1.96-1.69-3.52-3.66-3.52,0,0,0,0,0,0h0s0,0,0,0c0,0,0,0,0,0-8.1,0-14.67,6.57-14.67,14.68s6.57,14.68,14.67,14.68c7.23,0,13.23-5.24,14.44-12.14.14-.25.24-.51.24-.79V10.9Z"/>
          </g>
        </g>
      </g>
    </g>
    <path class="cls-3" d="M102.75,24.09c4.73,0,8.19,1.34,10.41,4.01,2.21,2.67,3.32,6.82,3.32,12.43v15.32c0,1.33-.36,2.34-1.07,3.05-.71.7-1.73,1.06-3.06,1.06h-1.15c-1.33,0-2.34-.35-3.05-1.06-.7-.7-1.06-1.72-1.06-3.05v-14.48c0-3.26-.62-5.65-1.85-7.18s-3.17-2.29-5.81-2.29-4.58.83-5.79,2.49c-1.21,1.66-1.81,4.17-1.81,7.53v13.94c0,1.33-.35,2.34-1.06,3.05s-1.72,1.06-3.05,1.06h-1.18c-1.33,0-2.34-.35-3.05-1.06-.7-.7-1.06-1.72-1.06-3.05v-27.12c0-1.33.35-2.34,1.06-3.05s1.72-1.06,3.05-1.06h1.18c1.33,0,2.34.35,3.05,1.04.7.69,1.06,1.67,1.06,2.94v1.78c.8-1.87,2.18-3.39,4.12-4.56,1.94-1.17,4.21-1.75,6.8-1.75Z"/>
  </g>
</svg>