<?xml version="1.0" encoding="UTF-8"?>
<svg id="Layer_2" xmlns="http://www.w3.org/2000/svg" version="1.1" viewBox="0 0 302 69.5">
  <!-- Generator: Adobe Illustrator 29.4.0, SVG Export Plug-In . SVG Version: 2.1.0 Build 152)  -->
  <defs>
    <style>
      .st0 {
        fill-rule: evenodd;
      }

      .st0, .st1 {
        fill: #fff;
      }

      .st2 {
        fill: #174898;
      }
    </style>
  </defs>
  <g id="Layer_1-2">
    <g id="Layer_1-3">
      <g id="_2939257924688">
        <rect class="st2" width="69.5" height="69.5" rx="13.4" ry="13.4"/>
        <path class="st2" d="M140.5,24c-7.9,0-18.3,6.1-18.3,18.6s9.8,18.4,19.1,18.4,7.9-1.2,10.4-3c1.7-1.5,2.2-2.7,2.2-3.8,0-1.7-1.2-3.1-3.1-3.1s-2.2.6-3.4,1.1c-2.1.9-3.3,1.5-5.8,1.5-5.1,0-9.1-2.7-9.9-7.8h20.7c3.7.1,5.7-1.1,5.7-4.7,0-10.8-9.6-17-17.5-17h0ZM140.5,31.9c4,0,7.9,2.2,8.6,7.6h-17.4c.6-5.4,4.9-7.6,8.8-7.6ZM187.1,11.9c-1.9-1.2-4.5-1.9-7.6-1.9-4.4,0-12.2,2.1-12.2,11.8v2.6h-2.1c-2.2,0-3.7,1.5-3.7,3.6s1.5,3.5,3.7,3.5h2.1v24.9c0,2.5,2.1,4.5,4.5,4.5s4.6-2,4.6-4.5v-24.9h5.7c2.2,0,3.7-1.5,3.7-3.5s-1.5-3.6-3.7-3.6h-5.7v-2.1c0-1.4.5-4.6,4.4-4.6s1.5.2,2.4.6c1.3.4,2.3.6,2.9.6,1.9,0,3.4-1.3,3.4-3.3s-.8-2.7-2.4-3.7h0ZM219.2,24.2c-2.5,0-4.6,2.1-4.6,4.5v1.2c-1.4-3.3-5.4-5.9-10.3-5.9-7.6,0-16.8,6.1-16.8,18.5s9.2,18.6,16.8,18.6,9.7-3.8,10.3-5.9v1.3c0,2.5,2.1,4.5,4.6,4.5s4.7-2,4.7-4.5v-27.8c0-2.4-2.2-4.5-4.7-4.5h0ZM206,53.2c-4.6,0-9.4-3.5-9.4-10.7s4.8-10.7,9.4-10.7,9.1,2.8,9.1,10.7-5.1,10.7-9.1,10.7ZM262.5,24.2c-2.5,0-4.6,2.1-4.6,4.5v1.2c-1.4-3.3-5.4-5.9-10.3-5.9-7.6,0-16.8,6.1-16.8,18.5s9.2,18.6,16.8,18.6,9.7-3.8,10.3-5.9v1.3c0,2.5,2.1,4.5,4.6,4.5s4.7-2,4.7-4.5v-27.8c0-2.4-2.2-4.5-4.7-4.5h0ZM249.3,53.2c-4.6,0-9.4-3.5-9.4-10.7s4.8-10.7,9.4-10.7,9,2.8,9,10.7-5.1,10.7-9.1,10.7h0ZM287.9,24c-6.6,0-13,3.6-13,10.6s2.9,8.7,10,10.6l4,1.2c3.3,1,4.1,2.5,4.1,3.7,0,2-1.9,3.4-5.3,3.4s-4.6-.7-6.6-3.2c-.8-1-1.9-2.2-3.8-2.2s-3.5,2-3.5,3.5,1.5,3.9,1.9,4.4c2,2.4,5.7,5,12,5s14.3-3.7,14.3-11.3-4.7-8.8-10.2-10.4l-4.2-1.2c-3.2-.9-3.6-2.4-3.6-3.5,0-2,1.6-3.3,4.3-3.3s3.6.8,5,2.4c1.2,1.5,2.5,2,3.8,2,2,0,3.5-1.2,3.5-3.4s-.7-2.4-1.1-3.1c-2.3-3.2-6.8-5.1-11.5-5.1h0Z"/>
        <g>
          <path class="st1" d="M53.5,60.8H16.5c-1.9,0-3.5-1.6-3.5-3.5s1.6-3.5,3.5-3.5h37c1.9,0,3.5,1.6,3.5,3.5s-1.6,3.5-3.5,3.5Z"/>
          <circle class="st1" cx="22.2" cy="34" r="3.7"/>
          <path class="st0" d="M36.9,10.9c0-1.3-1.6-2.3-3.7-2.3s-3.7,1-3.7,2.3v22.1h0v1.8c-.4,3.7-3.5,6.5-7.3,6.5s-7.3-3.3-7.3-7.3,3.2-7.3,7.2-7.3h0c2,0,3.7-1.6,3.7-3.7s0-.1,0-.2h0c0-2-1.7-3.5-3.7-3.5h0c-8.1,0-14.7,6.6-14.7,14.7s6.6,14.7,14.7,14.7,13.2-5.2,14.4-12.1c.1-.2.2-.5.2-.8V10.9h0Z"/>
          <g>
            <circle class="st1" cx="47.2" cy="34" r="3.7"/>
            <path class="st0" d="M61.9,10.9c0-1.3-1.6-2.3-3.7-2.3s-3.7,1-3.7,2.3v22.1h0v1.8c-.4,3.7-3.5,6.5-7.3,6.5s-7.3-3.3-7.3-7.3,3.2-7.3,7.2-7.3h0c2,0,3.7-1.6,3.7-3.7s0-.1,0-.2h0c0-2-1.7-3.5-3.7-3.5h0c-8.1,0-14.7,6.6-14.7,14.7s6.6,14.7,14.7,14.7,13.2-5.2,14.4-12.1c.1-.2.2-.5.2-.8V10.9h0Z"/>
          </g>
        </g>
      </g>
    </g>
    <path class="st2" d="M102.8,24.1c4.7,0,8.2,1.3,10.4,4,2.2,2.7,3.3,6.8,3.3,12.4v15.3c0,1.3-.4,2.3-1.1,3-.7.7-1.7,1.1-3.1,1.1h-1.2c-1.3,0-2.3-.3-3.1-1.1-.7-.7-1.1-1.7-1.1-3v-14.5c0-3.3-.6-5.7-1.8-7.2s-3.2-2.3-5.8-2.3-4.6.8-5.8,2.5-1.8,4.2-1.8,7.5v13.9c0,1.3-.3,2.3-1.1,3s-1.7,1.1-3.1,1.1h-1.2c-1.3,0-2.3-.3-3.1-1.1-.7-.7-1.1-1.7-1.1-3v-27.1c0-1.3.3-2.3,1.1-3s1.7-1.1,3.1-1.1h1.2c1.3,0,2.3.4,3.1,1,.7.7,1.1,1.7,1.1,2.9v1.8c.8-1.9,2.2-3.4,4.1-4.6s4.2-1.8,6.8-1.8h0Z"/>
  </g>
</svg>